<?xml version="1.0" standalone="no"?>
<!DOCTYPE svg PUBLIC "-//W3C//DTD SVG 20010904//EN"
 "http://www.w3.org/TR/2001/REC-SVG-20010904/DTD/svg10.dtd">
<svg version="1.0" xmlns="http://www.w3.org/2000/svg"
 width="574.000000pt" height="574.000000pt" viewBox="0 0 574.000000 574.000000"
 preserveAspectRatio="xMidYMid meet">
<metadata>
Created by potrace 1.11, written by Peter Selinger 2001-2013
</metadata>
<g transform="translate(0.000000,574.000000) scale(0.100000,-0.100000)"
fill="#000000" stroke="none">
<path d="M2600 5474 c-14 -2 -65 -9 -115 -15 -212 -27 -452 -102 -680 -214
-251 -123 -435 -257 -642 -466 -343 -347 -551 -756 -570 -1119 -14 -266 87
-487 286 -628 l66 -47 -12 -45 c-17 -66 -16 -258 3 -346 31 -152 116 -353 209
-494 l43 -65 -10 -100 c-24 -241 24 -497 132 -715 21 -42 47 -119 60 -175 27
-121 58 -199 115 -285 52 -80 178 -203 265 -259 543 -352 1520 -345 2339 16
601 265 991 667 1052 1085 16 113 8 179 -55 453 -69 299 -67 292 -114 378 -21
40 -55 115 -76 169 -20 53 -59 133 -86 178 l-50 82 10 67 c40 279 -32 627
-175 835 -14 21 -25 41 -23 45 2 3 20 35 40 71 210 372 57 793 -419 1153 -262
199 -628 351 -1004 417 -96 17 -173 23 -344 25 -121 2 -231 2 -245 -1z m418
-285 c591 -64 1171 -383 1361 -749 70 -135 77 -235 27 -360 -72 -178 -255
-338 -581 -506 -400 -208 -980 -375 -1580 -456 -220 -30 -658 -33 -810 -4
-212 39 -355 99 -452 189 -107 100 -144 216 -123 385 48 391 388 871 821 1163
252 169 576 294 854 328 50 6 101 13 115 15 56 8 277 5 368 -5z m1457 -1592
c-7 -45 -36 -108 -75 -157 -15 -19 -32 -57 -39 -84 -19 -77 -56 -139 -111
-189 -75 -68 -140 -89 -280 -93 -107 -3 -121 -6 -190 -37 -41 -19 -93 -41
-114 -48 -25 -9 -47 -27 -62 -50 -52 -83 -130 -123 -268 -139 -44 -5 -84 -14
-89 -19 -25 -25 -18 -101 27 -299 42 -177 46 -205 36 -241 -23 -86 -117 -151
-197 -136 -112 21 -132 53 -192 311 -27 115 -55 222 -62 237 -24 52 -92 71
-148 42 -57 -29 -56 -52 29 -422 40 -170 68 -314 64 -325 -14 -45 -113 -59
-147 -20 -8 9 -49 165 -91 347 -42 181 -82 336 -90 343 -12 12 -22 12 -67 -4
-74 -24 -222 -22 -311 6 -36 11 -123 45 -194 75 l-129 55 130 0 c547 1 1333
177 1860 417 250 114 412 224 585 398 106 107 115 113 123 92 5 -12 6 -39 2
-60z m-3366 -687 c45 -17 99 -39 119 -49 20 -10 62 -26 92 -36 78 -25 78 -25
24 -54 -27 -14 -78 -45 -113 -68 -49 -33 -74 -43 -105 -43 -115 0 -183 129
-126 240 11 22 22 40 23 40 2 0 40 -14 86 -30z m3605 -301 c10 -59 -25 -153
-88 -234 -30 -38 -68 -93 -85 -121 -16 -28 -53 -72 -82 -97 -51 -44 -53 -48
-57 -104 -2 -44 8 -106 42 -255 25 -108 46 -204 46 -213 0 -32 -30 -73 -66
-90 -31 -15 -43 -15 -75 -6 -22 7 -47 23 -56 37 -9 14 -34 100 -55 190 -21 91
-45 175 -53 188 -15 22 -13 26 57 96 57 56 67 71 48 66 -77 -19 -176 -38 -265
-51 -55 -8 -116 -17 -135 -20 -25 -4 3 14 95 63 321 168 540 353 630 532 10
19 29 50 43 68 l26 34 11 -24 c7 -13 15 -39 19 -59z m-3288 -58 c16 -1 37 -7
45 -13 15 -12 69 -229 69 -275 0 -30 -45 -80 -79 -88 -38 -8 -93 15 -108 46
-7 13 -29 94 -48 179 -20 85 -38 162 -40 171 -5 14 2 14 62 -2 38 -10 82 -18
99 -18z m94 -737 c194 -115 459 -161 874 -151 257 6 446 28 690 81 65 15 121
25 123 23 1 -2 -19 -35 -46 -74 -160 -227 -377 -291 -604 -176 l-69 34 -154
-7 c-118 -5 -154 -10 -150 -19 2 -7 10 -40 17 -74 9 -50 9 -64 -2 -77 -20 -24
-51 -33 -76 -21 -22 10 -31 29 -53 117 -15 57 -35 80 -71 80 -23 0 -59 -21
-59 -35 0 -2 16 -72 35 -155 39 -168 42 -207 20 -250 -41 -79 -170 -83 -219
-7 -9 12 -38 121 -66 242 -57 249 -59 251 -160 297 -135 61 -220 156 -220 245
l0 33 58 -31 c31 -16 91 -50 132 -75z m3362 -232 c-73 -289 -363 -576 -797
-787 -344 -168 -721 -267 -1130 -296 -345 -25 -696 29 -944 147 -100 47 -196
111 -249 167 l-34 35 93 -24 c276 -72 706 -79 1129 -18 784 112 1554 437 1881
792 35 38 66 68 67 67 2 -2 -5 -39 -16 -83z"/>
</g>
</svg>
