<?xml version="1.0" standalone="no"?>
<!DOCTYPE svg PUBLIC "-//W3C//DTD SVG 20010904//EN"
 "http://www.w3.org/TR/2001/REC-SVG-20010904/DTD/svg10.dtd">
<svg version="1.0" xmlns="http://www.w3.org/2000/svg"
 width="260.000000pt" height="260.000000pt" viewBox="0 0 260.000000 260.000000"
 preserveAspectRatio="xMidYMid meet">
<metadata>
Created by potrace 1.11, written by Peter Selinger 2001-2013
</metadata>
<g transform="translate(0.000000,260.000000) scale(0.100000,-0.100000)"
fill="#000000" stroke="none">
<path d="M1189 2400 c-87 -11 -245 -53 -329 -89 -128 -53 -203 -102 -286 -185
-165 -166 -205 -343 -109 -485 l33 -50 -20 -33 c-11 -18 -36 -50 -54 -71 -39
-43 -42 -59 -14 -87 16 -16 33 -20 85 -20 62 0 65 -1 71 -27 3 -16 11 -44 16
-63 6 -19 10 -63 9 -97 -3 -75 23 -140 68 -173 16 -13 35 -36 40 -52 6 -16 19
-41 29 -56 14 -19 21 -50 24 -108 3 -60 10 -90 26 -116 l22 -36 -52 -46 c-52
-45 -53 -45 -38 -73 11 -19 29 -31 62 -41 40 -11 48 -17 54 -45 22 -104 97
-203 170 -225 219 -65 621 1 909 152 185 96 284 261 241 401 l-15 49 35 52
c48 70 44 92 -23 123 -32 15 -53 31 -53 41 0 38 -33 122 -64 163 -33 43 -42
78 -52 191 -2 26 -15 73 -29 103 -14 31 -25 70 -25 87 0 17 -11 47 -24 66
l-23 35 63 69 c40 44 64 79 64 93 0 35 -34 63 -76 63 -40 0 -63 10 -115 51
-36 28 -37 30 -27 68 8 30 6 52 -7 97 -31 108 -180 228 -325 262 -68 16 -187
21 -261 12z m262 -120 c76 -26 124 -56 170 -107 51 -57 64 -101 44 -149 -87
-208 -489 -385 -880 -387 -144 -1 -205 17 -242 72 -63 94 2 270 142 383 199
161 573 253 766 188z m333 -425 l59 -40 -77 -72 -76 -72 -48 16 c-62 21 -122
22 -133 3 -4 -8 -11 -36 -14 -62 -5 -38 -10 -48 -25 -48 -28 0 -251 -66 -317
-94 l-58 -24 -37 34 c-21 19 -46 34 -56 34 -11 0 -33 -16 -51 -36 -46 -50 -67
-55 -142 -38 -35 8 -104 19 -152 23 -48 5 -90 11 -93 14 -3 3 2 19 11 37 12
23 21 30 33 25 9 -4 62 -10 117 -14 248 -20 535 42 735 159 71 41 200 140 234
179 11 12 22 20 25 19 3 -2 32 -21 65 -43z m-56 -316 c-82 -69 -143 -103 -225
-124 -67 -18 -179 -20 -189 -4 -10 17 4 22 133 53 129 31 153 45 153 87 l0 27
59 -5 c49 -5 66 -2 92 15 62 39 49 10 -23 -49z m121 -90 c17 -49 14 -56 -25
-69 -20 -7 -53 -27 -73 -45 -49 -44 -86 -61 -172 -81 -80 -18 -133 -41 -218
-95 -50 -31 -59 -34 -120 -30 -163 9 -175 8 -221 -23 -54 -36 -104 -43 -154
-22 -21 9 -62 16 -92 16 -61 0 -84 21 -84 78 0 27 3 32 18 28 83 -25 237 -32
362 -16 116 15 179 37 218 76 32 32 38 34 101 34 131 0 272 52 391 145 25 19
48 35 52 35 3 0 11 -14 17 -31z m-818 -75 c25 -30 57 -35 97 -15 20 10 47 22
60 25 19 7 22 4 22 -23 0 -27 -5 -32 -57 -51 -89 -34 -231 -38 -363 -10 -57
12 -105 22 -106 23 -1 1 -5 12 -8 24 -7 20 -4 22 31 17 21 -3 73 -12 116 -20
86 -17 130 -10 162 26 22 24 29 25 46 4z m846 -131 c-9 -54 -69 -104 -202
-169 -221 -107 -444 -164 -639 -164 -115 0 -164 11 -203 45 -36 30 -25 40 31
26 70 -17 108 -13 179 19 73 33 97 35 181 19 73 -15 116 -3 210 60 76 52 113
66 191 77 66 9 110 27 159 68 82 66 101 70 93 19z m109 -181 c8 -54 -8 -92
-57 -137 -78 -70 -319 -172 -499 -211 -62 -13 -129 -18 -250 -19 -188 0 -245
13 -305 70 -38 35 -49 73 -17 60 31 -14 359 -18 458 -5 220 27 424 118 593
263 61 52 66 50 77 -21z m4 -221 c-54 -60 -76 -78 -91 -74 -35 9 -30 20 29 56
31 19 70 49 86 66 17 17 34 31 39 31 5 0 -23 -36 -63 -79z m30 -216 c-72 -148
-418 -295 -754 -320 -93 -7 -228 13 -269 40 -23 15 -75 101 -66 110 2 1 63
-10 134 -26 72 -15 143 -29 158 -29 28 0 78 39 88 69 4 12 9 12 29 -2 14 -9
38 -17 55 -16 16 0 120 35 230 77 193 74 200 78 210 110 9 32 10 32 55 26 51
-7 90 8 125 46 l20 22 3 -31 c2 -18 -6 -51 -18 -76z m-290 76 c0 -15 -32 -31
-163 -80 -90 -33 -167 -61 -173 -61 -5 0 -24 13 -43 28 l-33 28 108 23 c60 12
147 35 194 51 104 34 110 35 110 11z m-502 -141 c-25 -62 -23 -61 -213 -14
-125 31 -143 39 -136 53 8 14 31 16 189 13 l181 -3 -21 -49z"/>
</g>
</svg>
