<svg xmlns="http://www.w3.org/2000/svg" viewBox="0 0 252.76 286.85">
  <title>supplement_steak</title>
  <g>
    <path d="M173.57,253.3l-2.95,1Z" style="fill: #69321e"/>
    <path d="M155.65,258.59q-4.17,1-8.31,1.69Q151.48,259.55,155.65,258.59Z" style="fill: #69321e"/>
    <path d="M194.08,243.91c-.63.36-1.28.72-1.93,1.07C192.8,244.63,193.45,244.27,194.08,243.91Z" style="fill: #69321e"/>
    <path d="M166.25,255.74c-1.12.34-2.24.68-3.38,1C164,256.42,165.13,256.08,166.25,255.74Z" style="fill: #69321e"/>
    <path d="M147.34,260.28c-2.76.48-5.5.89-8.23,1.21C141.84,261.17,144.58,260.76,147.34,260.28Z" style="fill: #69321e"/>
    <path d="M190.86,245.68l-2.09,1.08Z" style="fill: #69321e"/>
    <path d="M187.55,247.37l-2.25,1.08Z" style="fill: #69321e"/>
    <path d="M169.93,254.57l-3.16,1Z" style="fill: #69321e"/>
    <path d="M180.7,250.5l-2.59,1.07Z" style="fill: #69321e"/>
    <path d="M184.16,249l-2.41,1.07Z" style="fill: #69321e"/>
    <path d="M177.17,251.94,174.4,253Z" style="fill: #69321e"/>
    <path d="M85.17,255.76a47.83,47.83,0,0,1-11.57-6.83A47.83,47.83,0,0,0,85.17,255.76Z" style="fill: #69321e"/>
    <path d="M206,236.1l-1.25.92Z" style="fill: #69321e"/>
    <path d="M208.64,234c-.31.26-.64.51-1,.77C208,234.48,208.33,234.23,208.64,234Z" style="fill: #69321e"/>
    <path d="M68.81,244.11a29.73,29.73,0,0,0,3,3.22,29.73,29.73,0,0,1-3-3.22Z" style="fill: #69321e"/>
    <path d="M211.2,231.77l0,0,0,0c10.68-9.53,16.47-19.67,16.79-29.15h0C227.67,212.1,221.88,222.24,211.2,231.77Z" style="fill: #69321e"/>
    <path d="M197.21,242.07l-1.78,1.05Z" style="fill: #69321e"/>
    <path d="M155.65,258.59c2.33-.54,4.64-1.14,6.92-1.77-1.22.34-2.43.66-3.66,1C157.83,258.07,156.74,258.34,155.65,258.59Z" style="fill: #69321e"/>
    <path d="M111.58,262c-2.48-.23-4.92-.53-7.3-.92C106.66,261.49,109.1,261.79,111.58,262Z" style="fill: #69321e"/>
    <path d="M200.24,240.15l-1.62,1Z" style="fill: #69321e"/>
    <path d="M90.88,257.91c-2-.66-3.91-1.37-5.71-2.15C87,256.54,88.88,257.25,90.88,257.91Z" style="fill: #69321e"/>
    <path d="M203.15,238.16l-1.44,1Z" style="fill: #69321e"/>
    <path d="M194,238.17a65,65,0,0,0,14.63-18.47c-15.29,9.72-36.09,17.92-58.93,23.2-23.79,5.49-47,7.17-65.39,4.72a79.91,79.91,0,0,1-15.51-3.51,29.73,29.73,0,0,0,3,3.22c.58.55,1.19,1.08,1.82,1.6a47.83,47.83,0,0,0,11.57,6.83c1.8.78,3.71,1.49,5.71,2.15,1,.32,2,.64,3.08.93a90,90,0,0,0,10.32,2.26c2.38.39,4.82.69,7.3.92a126.55,126.55,0,0,0,15.43.41q4-.14,8-.51c1.35-.12,2.71-.27,4.07-.43,2.73-.32,5.47-.73,8.23-1.21s5.53-1,8.31-1.69c1.09-.25,2.18-.52,3.26-.8C160.76,257.25,178.88,251.66,194,238.17Z" style="fill: #f2c687"/>
    <path d="M162.87,256.74l-.3.08Z" style="fill: #ffe4b8"/>
    <path d="M174.4,253l-.83.3Z" style="fill: #ffe4b8"/>
    <path d="M166.77,255.58l-.52.16Z" style="fill: #ffe4b8"/>
    <path d="M170.62,254.34l-.69.23Z" style="fill: #ffe4b8"/>
    <path d="M201.71,239.15l-1.47,1Z" style="fill: #ffe4b8"/>
    <path d="M195.43,243.12l-1.35.79Z" style="fill: #ffe4b8"/>
    <path d="M192.15,245l-1.29.7Z" style="fill: #ffe4b8"/>
    <path d="M188.77,246.76l-1.22.61Z" style="fill: #ffe4b8"/>
    <path d="M198.62,241.18c-.47.3-.93.6-1.41.89C197.69,241.78,198.15,241.48,198.62,241.18Z" style="fill: #ffe4b8"/>
    <path d="M207.67,234.74c-.56.45-1.13.91-1.71,1.36C206.54,235.65,207.11,235.19,207.67,234.74Z" style="fill: #ffe4b8"/>
    <path d="M211.17,231.8c-.82.73-1.66,1.46-2.53,2.17C209.51,233.26,210.35,232.53,211.17,231.8Z" style="fill: #ffe4b8"/>
    <path d="M204.71,237l-1.56,1.14Z" style="fill: #ffe4b8"/>
    <path d="M178.11,251.57l-.94.37Z" style="fill: #ffe4b8"/>
    <path d="M185.3,248.45l-1.14.53Z" style="fill: #ffe4b8"/>
    <path d="M181.75,250.05l-1.05.45Z" style="fill: #ffe4b8"/>
    <path d="M228,202.62c-3.71,5.29-9.55,10.62-17.43,15.86-.62.41-1.27.82-1.92,1.22A65,65,0,0,1,194,238.17c-15.13,13.49-33.25,19.08-35.1,19.62,1.23-.31,2.44-.63,3.66-1l.3-.08c1.14-.32,2.26-.66,3.38-1l.52-.16,3.16-1,.69-.23,2.95-1,.83-.3,2.77-1.06.94-.37,2.59-1.07,1.05-.45,2.41-1.07,1.14-.53,2.25-1.08,1.22-.61,2.09-1.08,1.29-.7c.65-.35,1.3-.71,1.93-1.07l1.35-.79,1.78-1.05c.48-.29.94-.59,1.41-.89l1.62-1,1.47-1,1.44-1,1.56-1.14,1.25-.92c.58-.45,1.15-.91,1.71-1.36.33-.26.66-.51,1-.77.87-.71,1.71-1.44,2.53-2.17l0,0C221.88,222.24,227.67,212.1,228,202.62Z" style="fill: #ffe4b8"/>
    <path d="M92.26,210.48a1.49,1.49,0,0,1,0-.42h-.08Z" style="fill: #69321e"/>
    <path d="M212.65,163.1a32.35,32.35,0,0,1-.56,5.69,21.64,21.64,0,0,1-.88,3.27c.75-.74,1.45-1.49,2.1-2.24a29.42,29.42,0,0,0,3-4c2.21-3.62,3.06-7.14,2.31-10.42a11.59,11.59,0,0,0-1.47-3.45,38,38,0,0,1-2.8,3.75,28.11,28.11,0,0,1-1.8,3.54c.09,1.35.14,2.66.12,3.87" style="fill: #ffce06"/>
    <path d="M207.4,206.06l-.29-1.25-1.26-5.48L203.24,188a20.18,20.18,0,0,1,.39-7,28.24,28.24,0,0,1-5.19,2.22,34,34,0,0,1-7.45,7.25,9.16,9.16,0,0,1,2,3.66l2.92,12.63.42,1.82a5.66,5.66,0,0,0,11-2.54Z" style="fill: #ffce06"/>
    <path d="M92.26,210.48l-.1-.41h.08c4.73,0,9.75-.19,15-.61a55.5,55.5,0,0,0-10-5.4l-1.63,0c-4-.07-7.81-.31-11.47-.71-.65-.07-1.3-.13-1.94-.22-6.19,1.27-12.63,3.3-17.36,1.3a8.85,8.85,0,0,1-4-3.38,16.1,16.1,0,0,1-2-4.81,30.93,30.93,0,0,1-4.31-2.92c-1-.4-1.88-.81-2.76-1.25s-1.68-.87-2.45-1.33a11.6,11.6,0,0,0,.19,3.73,12.11,12.11,0,0,0,.37,1.21c1.33,3.68,4.69,6.69,9.67,9,.85.4,1.74.77,2.69,1.12l0,0A6.32,6.32,0,0,1,64.05,207a7.69,7.69,0,0,1,1.86,2.64l2.18,9.45,1.75,7.56.71,3.07A6.7,6.7,0,0,0,82.61,232a6.61,6.61,0,0,0,1.09-4.89c0-.14,0-.28-.07-.42L80.24,212c-.09-.54-.13-1.88,1.75-2.31h0c.47,0,1,.06,1.44.09l.18,0c1.6.08,2.16,1.7,2.31,2.27l1.22,5.3a3.25,3.25,0,1,0,6.34-1.46Z" style="fill: #ffce06"/>
    <path d="M143.73,198.05c-2.66,4-5.36,8.18-8.86,11.25a131.77,131.77,0,0,0,18.52-2.94c15.62-3.61,29-9.49,37.6-15.87a34,34,0,0,0,7.45-7.25c-6.29,2-14.39,2.9-23.72,4.24A189.68,189.68,0,0,1,143.73,198.05Z" style="fill: #e21b38"/>
    <path d="M210.71,161.93c.67.38,1.32.77,1.94,1.17h0c-.62-.4-1.27-.79-1.94-1.17Z" style="fill: #9fc867"/>
    <path d="M79,202.66a75.14,75.14,0,0,1-11.92-2.83A49.08,49.08,0,0,1,62.39,198a39.37,39.37,0,0,1-3.62-1.8,16.1,16.1,0,0,0,2,4.81,8.85,8.85,0,0,0,4,3.38c4.73,2,11.17,0,17.36-1.3C81.11,203,80.06,202.82,79,202.66Z" style="fill: #9fc867"/>
    <path d="M139.79,199a191,191,0,0,1-39.09,5c-1.17,0-2.34,0-3.5,0a55.5,55.5,0,0,1,10,5.4c4.62,2.86,9.16,5.27,16.91,4.58a18.35,18.35,0,0,0,10.75-4.73c3.5-3.07,6.2-7.21,8.86-11.25C142.43,198.38,141.12,198.7,139.79,199Z" style="fill: #9fc867"/>
    <path d="M212.53,159.22c-.54.91-1.16,1.81-1.82,2.71.67.38,1.32.77,1.94,1.17C212.67,161.89,212.62,160.58,212.53,159.22Z" style="fill: #9fc867"/>
    <path d="M207.48,165.84a65.33,65.33,0,0,1-7,6.49c-1.4,1.11-2.85,2.22-4.43,3.32a127.22,127.22,0,0,1-21.28,11.83c9.33-1.34,17.43-2.19,23.72-4.24a28.24,28.24,0,0,0,5.19-2.22,16.16,16.16,0,0,0,7.58-9,21.64,21.64,0,0,0,.88-3.27,32.35,32.35,0,0,0,.56-5.69c-.62-.4-1.27-.79-1.94-1.17A44.81,44.81,0,0,1,207.48,165.84Z" style="fill: #9fc867"/>
    <path d="M212.44,157.82c-1,1.09-2.15,2.17-3.36,3.26s-2.71,2.34-4.21,3.51c-1.66,1.28-3.44,2.57-5.34,3.84l-.45.31c-9.52,6.32-21.39,12-34.67,16.79q-7.26,2.59-15,4.77-5.48,1.55-11.15,2.86a222.81,222.81,0,0,1-41.44,5.7,144,144,0,0,1-24-1c-1.35-.18-2.64-.39-3.91-.61q-2.81-.48-5.37-1.1t-5.13-1.43c-1.39-.45-2.72-.94-4-1.46a30.93,30.93,0,0,0,4.31,2.92,39.37,39.37,0,0,0,3.62,1.8,49.08,49.08,0,0,0,4.73,1.82A75.14,75.14,0,0,0,79,202.66c1,.16,2.07.31,3.12.44.64.09,1.29.15,1.94.22,3.66.4,7.5.64,11.47.71l1.63,0c1.16,0,2.33,0,3.5,0a191,191,0,0,0,39.09-5c1.33-.3,2.64-.62,3.94-.95a189.68,189.68,0,0,0,31-10.57A127.22,127.22,0,0,0,196,175.65c1.58-1.1,3-2.21,4.43-3.32a65.33,65.33,0,0,0,7-6.49,44.81,44.81,0,0,0,3.23-3.91c.66-.9,1.28-1.8,1.82-2.7a28.11,28.11,0,0,0,1.8-3.54Q213.45,156.76,212.44,157.82Z" style="fill: #83513c"/>
    <path d="M165.86,130.77a24.34,24.34,0,0,1-1.12,6.26,16.65,16.65,0,0,1-.62,1.6c1.37-.53,2.71-1.08,4-1.63,2.87-1.19,5.62-2.41,8.23-3.65A53.35,53.35,0,0,1,165.86,130.77Z" style="fill: #ffce06"/>
    <path d="M148.68,170.81,147.8,167l-1.49-6.46-.69-3-.44-1.93L144.8,154a10.63,10.63,0,0,1,.78-6.48c-5.8,0-12.15-.7-18.09-.91h0a23.17,23.17,0,0,0-12.72,3.55c-3,1.73-5.82,3.74-8.75,5.22a5.82,5.82,0,0,1,1.35,1.8l1.85,8,1.21,5.22,1.17,5.09,3.2,13.86c.45,2,3.17,3,5.14,2.56s4.12-1.84,3.66-3.8l-3.34-14.49-1.51-6.51-.2-.9-.93-4-.93-4c-.21-1.41-1.54-5.38,4-6.67,5.28-.06,5.94,5.29,5.94,5.29l.6,2.59.7,3.05.43,1.83,1.64,7.12.81,3.52a9.16,9.16,0,1,0,17.86-4.12Z" style="fill: #ffce06"/>
    <path d="M207,106.31a8.09,8.09,0,0,0-.75-3.7l-.75.77c-1.17,1.2-2.43,2.4-3.81,3.6l-.19.25a35.26,35.26,0,0,1,.2,9.4C205,113.05,206.89,109.55,207,106.31Z" style="fill: #ffce06"/>
    <path d="M60,172.12l-1.72-7.45-1.12-4.89a47.53,47.53,0,0,1-11.37-2.41L49.38,173l.36,1.54a5.26,5.26,0,0,0,5.42,4.06,5.58,5.58,0,0,0,.89-.12,5.26,5.26,0,0,0,4.07-5.12A5.36,5.36,0,0,0,60,172.12Z" style="fill: #ffce06"/>
    <path d="M87,155.66l-.68-.22c-2.65-.91-5.27-2-7.9-3.17-2.35-1-4.71-2.05-7.07-3a89.41,89.41,0,0,1-17.93-2.4c-3.76.83-6.81,3.46-9.61,5.38a14.41,14.41,0,0,1-3.26,1.77,5.31,5.31,0,0,1-.64.21c.26.2.54.39.82.58a22.87,22.87,0,0,0,5.05,2.51,47.53,47.53,0,0,0,11.37,2.41c2.33.24,4.81.37,7.41.4a111.31,111.31,0,0,0,15.72-1c3.85-.51,7.83-1.22,11.88-2.13A41.76,41.76,0,0,1,87,155.66Z" style="fill: #e21b38"/>
    <path d="M42.25,142.68c-1.17-.35-2.29-.73-3.37-1.13q-2.57-.93-4.82-2c-3.19,4.67-4.19,10,1.9,14a4.75,4.75,0,0,0,3.95.7,5.31,5.31,0,0,0,.64-.21,14.41,14.41,0,0,0,3.26-1.77c2.8-1.92,5.85-4.55,9.61-5.38A46.3,46.3,0,0,1,42.25,142.68Z" style="fill: #9fc867"/>
    <path d="M201.48,107.23c-6.83,8.67-18.95,16.48-34.45,23a219.89,219.89,0,0,1-24.51,8.61c-5.07,1.47-10.33,2.83-15.74,4.08s-10.79,2.33-16,3.24a220.51,220.51,0,0,1-25.84,3q-7.11.36-13.57.11c2.36.9,4.72,1.94,7.07,3,2.63,1.14,5.25,2.26,7.9,3.17l.68.22A41.76,41.76,0,0,0,92.16,157a29.52,29.52,0,0,0,3.37.41,22.58,22.58,0,0,0,4.42-.1,18.23,18.23,0,0,0,6-2c2.93-1.48,5.71-3.49,8.75-5.22a23.17,23.17,0,0,1,12.72-3.55h0c5.94.21,12.29,1,18.09.91,7-.06,13.2-1.31,16.86-6.08a13.58,13.58,0,0,0,1.68-2.81,16.65,16.65,0,0,0,.62-1.6,24.34,24.34,0,0,0,1.12-6.26,53.35,53.35,0,0,0,10.52,2.58c6.15.82,11.34.12,15.42-1.87,5.53-2.71,9-7.81,9.88-14.85A35.26,35.26,0,0,0,201.48,107.23Z" style="fill: #9fc867"/>
    <path d="M201.48,107.23l.19-.25-.2.17A.22.22,0,0,0,201.48,107.23Z" style="fill: #432918"/>
    <path d="M201.47,107.15a84.05,84.05,0,0,1-7.76,6c-9.68,6.63-22.09,12.63-36.64,17.77a285.24,285.24,0,0,1-30.68,8.83,283.28,283.28,0,0,1-32,5.57,194.84,194.84,0,0,1-21.6,1.3,127.71,127.71,0,0,1-18.6-1.26,82.11,82.11,0,0,1-12-2.64,46.3,46.3,0,0,0,11.17,4.24,89.41,89.41,0,0,0,17.93,2.4q6.45.26,13.57-.11a220.51,220.51,0,0,0,25.84-3q7.84-1.36,16-3.24c5.41-1.25,10.67-2.61,15.74-4.08A219.89,219.89,0,0,0,167,130.28c15.5-6.57,27.62-14.38,34.45-23A.22.22,0,0,1,201.47,107.15Z" style="fill: #83513c"/>
    <path d="M196.59,95.17l0,0-.13,0Z" style="fill: #69321e"/>
    <path d="M63.61,83.33c3.18-.74,5.38-3,4.91-5s-3.44-3.12-6.63-2.39-5.38,3-4.9,5S60.43,84.06,63.61,83.33Z" style="fill: #fff"/>
    <path d="M54.12,107.78c-.48-2.06-3.44-3.12-6.63-2.39s-5.38,3-4.9,5,3.44,3.12,6.62,2.39l.66-.18a6.92,6.92,0,0,0,3.71-2.53A3,3,0,0,0,54.12,107.78Z" style="fill: #fff"/>
    <path d="M88.53,117.5a2.76,2.76,0,0,0-.08-.27c-.67-1.87-3.5-2.82-6.54-2.12-2.6.6-4.54,2.22-4.91,3.92a2.54,2.54,0,0,0,0,1.13c.47,2.06,3.43,3.12,6.62,2.39S89,119.55,88.53,117.5Z" style="fill: #fff"/>
    <path d="M91.67,88.7c3.18-.74,5.38-3,4.91-5S93.14,80.53,90,81.26s-5.38,3-4.9,5S88.49,89.43,91.67,88.7Z" style="fill: #fff"/>
    <path d="M114.94,39.83c3.18-.73,5.38-3,4.91-5s-3.44-3.12-6.63-2.38-5.38,3-4.9,5S111.76,40.57,114.94,39.83Z" style="fill: #fff"/>
    <path d="M135.09,78.25c-.47-2-3.43-3.12-6.62-2.39s-5.38,3-4.9,5c.33,1.43,1.86,2.38,3.83,2.58a8.67,8.67,0,0,0,2.79-.19,8.86,8.86,0,0,0,1.53-.51C134,81.79,135.49,80,135.09,78.25Z" style="fill: #fff"/>
    <path d="M161.24,50.33c3.19-.74,5.38-3,4.91-5s-3.44-3.12-6.62-2.39-5.38,3-4.91,5S158.06,51.06,161.24,50.33Z" style="fill: #fff"/>
    <path d="M204.55,71.29c-2.7-11.72-16.29-25-34.61-33.77a107.8,107.8,0,0,0-46.4-10.66q-3.62,0-7.2.26a100.57,100.57,0,0,0-15.46,2.29A105.48,105.48,0,0,0,42.35,67c-12.61,15.93-19,33.8-16.3,45.52a18.07,18.07,0,0,0,3.13,6.74,23.88,23.88,0,0,0,7,6.1,36.37,36.37,0,0,0,3.74,1.94c.25.12.51.22.77.33,1.16.5,2.38,1,3.66,1.39l1.09.35c7.31,2.26,16.38,3.42,27.05,3.42,14.81,0,31.89-2.21,50.77-6.57,19.28-4.45,36-10.14,49.25-16.73a113.65,113.65,0,0,0,12.95-7.42c.5-.34,1-.67,1.5-1a68.75,68.75,0,0,0,8-6.45l.21-.21a42,42,0,0,0,5.66-6.6,24.88,24.88,0,0,0,3.71-8.07A18,18,0,0,0,204.55,71.29Zm-151,38.85a6.92,6.92,0,0,1-3.71,2.53c-.22.06-.44.13-.66.18-3.19.73-6.15-.34-6.62-2.39s1.72-4.31,4.9-5,6.15.34,6.62,2.39A3,3,0,0,1,53.54,110.14Zm10-26.79C60.38,84.09,57.42,83,57,81s1.72-4.31,4.9-5,6.15.33,6.62,2.38S66.75,82.62,63.57,83.35Zm20,39.22c-3.19.73-6.15-.33-6.63-2.39a2.69,2.69,0,0,1,0-1.13c.37-1.7,2.31-3.31,4.91-3.92,3-.7,5.87.25,6.54,2.12a2.76,2.76,0,0,1,.08.27C89,119.57,86.77,121.84,83.59,122.57Zm8-33.85c-3.18.73-6.15-.34-6.62-2.39s1.72-4.31,4.9-5,6.15.34,6.62,2.39S94.81,88,91.63,88.72Zm16.65-51.25c-.48-2.06,1.72-4.32,4.9-5s6.15.33,6.62,2.38-1.72,4.32-4.9,5.05S108.75,39.52,108.28,37.47Zm23.4,45.34a9.15,9.15,0,0,1-1.53.51,8.67,8.67,0,0,1-2.79.19c-2-.2-3.51-1.15-3.84-2.58-.47-2.05,1.73-4.31,4.91-5.05s6.15.34,6.62,2.39C135.45,80,134,81.81,131.68,82.81Z" style="fill: #f2c687"/>
    <path d="M152.09,92.44a2.43,2.43,0,0,0-.32-.78c-1-1.53-3.54-2.25-6.3-1.61-2.36.54-4.17,1.93-4.76,3.44a2.63,2.63,0,0,0-.14,1.61c.47,2.05,3.43,3.12,6.62,2.39S152.57,94.49,152.09,92.44Z" style="fill: #fff"/>
    <path d="M169,70.69a2.7,2.7,0,0,0-.33-.78c-.95-1.53-3.54-2.25-6.29-1.61-2.36.54-4.18,1.93-4.77,3.44a2.79,2.79,0,0,0-.14,1.61c.47,2.05,3.44,3.12,6.62,2.39S169.44,72.74,169,70.69Z" style="fill: #fff"/>
    <path d="M157.84,44.94a2.43,2.43,0,0,0-.32-.78c-1-1.53-3.54-2.25-6.3-1.61-2.36.54-4.17,1.93-4.76,3.44a2.63,2.63,0,0,0-.14,1.61c.47,2,3.43,3.12,6.62,2.39S158.32,47,157.84,44.94Z" style="fill: #fff"/>
    <path d="M131.59,56.31a2.47,2.47,0,0,0-.32-.77c-1-1.53-3.54-2.25-6.3-1.61-2.36.54-4.17,1.92-4.76,3.44a2.6,2.6,0,0,0-.14,1.6c.47,2.06,3.43,3.13,6.62,2.39S132.07,58.37,131.59,56.31Z" style="fill: #fff"/>
    <path d="M83.84,58.86c3.18-.73,5.38-3,4.9-5s-3.44-3.12-6.62-2.38-5.38,3-4.91,5S80.65,59.6,83.84,58.86Z" style="fill: #fff"/>
    <path d="M112.17,104.36c3.18-.73,5.38-3,4.91-5s-3.44-3.12-6.63-2.38-5.38,3-4.9,5S109,105.1,112.17,104.36Z" style="fill: #fff"/>
    <g>
      <path d="M196.61,95.15l-.13,0,.11.06Z" style="fill: none"/>
      <path d="M49.74,174.49a5.26,5.26,0,0,0,5.42,4.06,5.58,5.58,0,0,0,.89-.12,5.26,5.26,0,0,0,4.07-5.12,5.36,5.36,0,0,0-.13-1.19l-1.72-7.45-1.13-4.89c2.34.24,4.82.37,7.42.4a111.31,111.31,0,0,0,15.72-1c3.85-.51,7.83-1.22,11.88-2.13a29.52,29.52,0,0,0,3.37.41,22.58,22.58,0,0,0,4.42-.1,18.23,18.23,0,0,0,6-2,5.82,5.82,0,0,1,1.35,1.8l1.85,8h0l1.14,4.94.07.28,1.17,5.09,3.2,13.86c.45,2,3.17,3,5.14,2.56s4.12-1.84,3.66-3.8l-3.34-14.49-1.51-6.51-.2-.9-.93-4-.93-4c-.21-1.41-1.54-5.38,4-6.67,5.28-.06,5.94,5.29,5.94,5.29l.6,2.59.7,3.05.43,1.83,1.64,7.12.81,3.52a9.16,9.16,0,1,0,17.86-4.12L147.8,167l-1.49-6.46-.69-3-.44-1.93L144.8,154a10.63,10.63,0,0,1,.78-6.48c7-.06,13.2-1.31,16.86-6.08a13.58,13.58,0,0,0,1.68-2.81c1.37-.53,2.71-1.08,4-1.63,2.87-1.19,5.62-2.41,8.23-3.65,6.15.82,11.34.12,15.42-1.87,5.53-2.71,9-7.81,9.88-14.85,3.34-3.58,5.21-7.08,5.3-10.32a8.09,8.09,0,0,0-.75-3.7l-.75.77c-1.17,1.2-2.43,2.4-3.81,3.6l-.2.17a84.05,84.05,0,0,1-7.76,6c-9.68,6.63-22.09,12.63-36.64,17.77a285.24,285.24,0,0,1-30.68,8.83,283.28,283.28,0,0,1-32,5.57,194.84,194.84,0,0,1-21.6,1.3,127.71,127.71,0,0,1-18.6-1.26,82.11,82.11,0,0,1-12-2.64c-1.17-.35-2.29-.73-3.37-1.13q-2.57-.93-4.82-2c-3.19,4.67-4.19,10,1.9,14a4.75,4.75,0,0,0,3.95.7c.26.2.54.39.82.58a22.87,22.87,0,0,0,5.05,2.51L49.38,173Z" style="fill: none"/>
      <path d="M185.46,102c-2.22,1.43-4.43,2.78-6.63,4.07C181.17,104.77,183.39,103.42,185.46,102Z" style="fill: none"/>
      <path d="M203.31,83.24a20.94,20.94,0,0,0,1.21-3.55,18.12,18.12,0,0,0,.08-8.42c-.18-.76-.41-1.54-.67-2.31A21,21,0,0,1,203.31,83.24Z" style="fill: none"/>
      <path d="M210.56,218.48c-.62.41-1.27.82-1.92,1.22-15.29,9.72-36.09,17.92-58.93,23.2-23.79,5.49-47,7.17-65.39,4.72a79.91,79.91,0,0,1-15.51-3.51,29.73,29.73,0,0,0,3,3.22c.58.55,1.19,1.08,1.82,1.6a47.83,47.83,0,0,0,11.57,6.83c1.8.78,3.71,1.49,5.71,2.15,1,.32,2,.64,3.08.93a90,90,0,0,0,10.32,2.26c2.38.39,4.82.69,7.3.92a126.55,126.55,0,0,0,15.43.41q4-.14,8-.51c1.35-.12,2.71-.27,4.07-.43,2.73-.32,5.47-.73,8.23-1.21s5.53-1,8.31-1.69c2.33-.54,4.64-1.14,6.92-1.77l.3-.08c1.14-.32,2.26-.66,3.38-1l.52-.16,3.16-1,.69-.23,2.95-1,.83-.3,2.77-1.06.94-.37,2.59-1.07,1.05-.45c.81-.35,1.61-.71,2.41-1.08l1.14-.52,2.25-1.08,1.22-.61,2.09-1.08,1.29-.7c.65-.35,1.3-.71,1.93-1.07l1.35-.79,1.78-1.05c.48-.29.94-.59,1.41-.89l1.62-1,1.47-1,1.44-1,1.56-1.14,1.25-.92c.58-.45,1.15-.91,1.71-1.36.33-.26.66-.51,1-.77.87-.71,1.71-1.44,2.53-2.17l0,0c10.68-9.53,16.47-19.67,16.79-29.15h0C224.28,207.91,218.44,213.24,210.56,218.48Z" style="fill: none"/>
      <path d="M70.55,229.68A6.7,6.7,0,0,0,82.61,232a6.61,6.61,0,0,0,1.09-4.89c0-.14,0-.28-.07-.42L80.24,212c-.09-.54-.13-1.88,1.75-2.31h0c.47,0,1,.06,1.44.09l.18,0c1.6.08,2.16,1.7,2.31,2.27l1.22,5.3a3.25,3.25,0,1,0,6.34-1.46l-1.25-5.43a1.49,1.49,0,0,1,0-.42c4.73,0,9.75-.19,15-.61,4.62,2.86,9.16,5.27,16.91,4.58a18.35,18.35,0,0,0,10.75-4.73,131.77,131.77,0,0,0,18.52-2.94c15.62-3.61,29-9.49,37.6-15.87a9.16,9.16,0,0,1,2,3.66l2.92,12.63.42,1.82a5.66,5.66,0,0,0,11-2.54l-.29-1.25-1.26-5.48L203.24,188a20.18,20.18,0,0,1,.39-7,16.16,16.16,0,0,0,7.58-9c.75-.74,1.45-1.49,2.1-2.24a29.42,29.42,0,0,0,3-4c2.21-3.62,3.06-7.14,2.31-10.42a11.59,11.59,0,0,0-1.47-3.45,38,38,0,0,1-2.8,3.75q-.89,1.06-1.89,2.13c-1,1.09-2.15,2.17-3.36,3.26s-2.71,2.34-4.21,3.51c-1.66,1.28-3.44,2.57-5.34,3.84l-.45.31c-9.52,6.32-21.39,12-34.67,16.79q-7.26,2.59-15,4.77-5.48,1.55-11.15,2.86a222.81,222.81,0,0,1-41.44,5.7,144,144,0,0,1-24-1c-1.35-.18-2.64-.39-3.91-.61q-2.81-.48-5.37-1.1t-5.13-1.43c-1.39-.45-2.72-.94-4-1.46-1-.4-1.88-.81-2.76-1.25s-1.68-.87-2.45-1.33a11.6,11.6,0,0,0,.19,3.73,12.11,12.11,0,0,0,.37,1.21c1.33,3.68,4.69,6.69,9.67,9,.85.4,1.74.77,2.69,1.12l0,0A6.32,6.32,0,0,1,64.05,207a7.69,7.69,0,0,1,1.86,2.64l2.18,9.45,1.75,7.56Z" style="fill: none"/>
      <path d="M94,131.36s2.47-.28,5-.64q11.58-1.62,24.3-4.54c19.28-4.45,36-10.14,49.26-16.73q3.3-1.64,6.31-3.35c2.2-1.29,4.41-2.64,6.63-4.07.51-.34,1-.67,1.5-1a68,68,0,0,0,8-6.46l.21-.2a41.59,41.59,0,0,0,5.66-6.61,27.38,27.38,0,0,0,2.5-4.51A21,21,0,0,0,203.93,69c-3.1-9-12.15-18.6-24.53-26.3C226.86,102.69,94,131.36,94,131.36Z" style="fill: #ffe4b8"/>
      <g>
        <path d="M196.61,95.15l-.13,0,.11.06Z" style="fill: #fff"/>
        <path d="M251.49,190.44l-4.79-20.73a41.22,41.22,0,0,0-5.8-13.45,79.61,79.61,0,0,0-7.06-15.66c1-8.69,1.5-27.24-8.1-44.67a45.75,45.75,0,0,0,3.66-30.87c-4.62-20-22.92-39.42-49-51.92A133.28,133.28,0,0,0,123.19,0,125.27,125.27,0,0,0,95,3.19C66.79,9.7,41.06,26.18,22.53,49.6,4.61,72.25-3.33,97.71,1.29,117.72A45.54,45.54,0,0,0,16.56,142.6c-2,19.84,8.37,38.28,13,45.31,0,.44,0,.87,0,1.31a76.18,76.18,0,0,0,2.59,28.42l-.06,0,.08.1a76.69,76.69,0,0,0,6.33,15.43l1.42,6.15c4.71,20.4,21.57,35.66,47.48,43a130,130,0,0,0,35.28,4.58,172,172,0,0,0,38.63-4.53c26.16-6,49.74-17.56,66.4-32.44C247.73,231.94,256.19,210.83,251.49,190.44Zm-32.17,50.61c-15.12,13.5-36.75,24-60.89,29.58a160,160,0,0,1-35.82,4.21,117.45,117.45,0,0,1-31.88-4.11c-21.32-6-35.07-18-38.7-33.75l-1.82-7.89A64.3,64.3,0,0,1,42,190.24a18.53,18.53,0,0,1,.56-5.09c-.39-.46-.76-.94-1.1-1.43h0S23.52,159.32,30.38,137.6c-10.77-6.31-15.22-14.9-16.91-22.2C9.75,99.3,17,77.25,32.33,57.85c16.78-21.21,40-36.12,65.46-42A113.24,113.24,0,0,1,123.19,13h0A120.61,120.61,0,0,1,175,24.9c22.3,10.71,38.46,27.36,42.18,43.46,1.74,7.53,1.43,17.57-6.13,28.33,13.29,17.81,10.88,39.86,10,45.42-.05.32-.1.65-.16,1s-.07.36-.07.36h0c-.05.19-.11.38-.15.58a19.74,19.74,0,0,1,1.52,2h0a66.43,66.43,0,0,1,7.32,16.25,28.87,28.87,0,0,1,5,10.69l4.79,20.74C242.94,209.49,235.84,226.29,219.32,241.05Z" style="fill: #fff"/>
      </g>
      <path d="M195.15,94.36l-.21.2a68,68,0,0,1-8,6.46c-.48.34-1,.67-1.5,1,10-6.4,15.42-12.75,17.85-18.79a27.38,27.38,0,0,1-2.5,4.51A41.59,41.59,0,0,1,195.15,94.36Z" style="fill: #ffe4b8"/>
      <path d="M239.31,193.75,234.52,173a28.87,28.87,0,0,0-5-10.69,66.43,66.43,0,0,0-7.32-16.25h0a19.74,19.74,0,0,0-1.52-2c0-.2.1-.39.15-.58h0s0-.13.07-.36.11-.65.16-1c.88-5.56,3.29-27.61-10-45.42,7.56-10.76,7.87-20.8,6.13-28.33C213.5,52.26,197.34,35.61,175,24.9A120.61,120.61,0,0,0,123.19,13h0a113.24,113.24,0,0,0-25.4,2.87c-25.43,5.87-48.68,20.78-65.46,42C17,77.25,9.75,99.3,13.47,115.4c1.69,7.3,6.14,15.89,16.91,22.2-6.86,21.72,11.08,46.13,11.08,46.13h0c.34.49.71,1,1.1,1.43a18.53,18.53,0,0,0-.56,5.09,64.3,64.3,0,0,0,8.21,38.85L52,237c3.63,15.75,17.38,27.73,38.7,33.75a117.45,117.45,0,0,0,31.88,4.11,160,160,0,0,0,35.82-4.21c24.14-5.58,45.77-16.08,60.89-29.58C235.84,226.29,242.94,209.49,239.31,193.75ZM29.22,119.22a18.07,18.07,0,0,1-3.13-6.74c-2.7-11.72,3.69-29.59,16.3-45.52a105.51,105.51,0,0,1,58.53-37.57,100.75,100.75,0,0,1,15.46-2.29c2.39-.17,4.79-.27,7.2-.27A107.89,107.89,0,0,1,170,37.5a100.38,100.38,0,0,1,9.41,5.16C191.78,50.36,200.83,60,203.93,69c.26.77.49,1.55.67,2.31a18.12,18.12,0,0,1-.08,8.42,20.94,20.94,0,0,1-1.21,3.55c-2.43,6-7.89,12.39-17.85,18.79-2.07,1.39-4.29,2.74-6.63,4.07q-3,1.71-6.31,3.35c-13.29,6.59-30,12.28-49.26,16.73q-12.72,2.94-24.3,4.54a191.33,191.33,0,0,1-26.47,2c-10.67,0-19.73-1.16-27-3.42L44.35,129c-1.28-.43-2.5-.89-3.66-1.39-.26-.11-.52-.21-.77-.33a35.19,35.19,0,0,1-3.73-1.94A23.93,23.93,0,0,1,29.22,119.22ZM196.61,95.15l0,0-.11-.06ZM40.73,154.86c-.28-.19-.56-.38-.82-.58a4.75,4.75,0,0,1-3.95-.7c-6.09-4-5.09-9.36-1.9-14q2.25,1.06,4.82,2c1.08.4,2.2.78,3.37,1.13a82.11,82.11,0,0,0,12,2.64,127.71,127.71,0,0,0,18.6,1.26,194.84,194.84,0,0,0,21.6-1.3,283.28,283.28,0,0,0,32-5.57,285.24,285.24,0,0,0,30.68-8.83c14.55-5.14,27-11.14,36.64-17.77a84.05,84.05,0,0,0,7.76-6l.2-.17c1.38-1.2,2.64-2.4,3.81-3.6l.75-.77a8.09,8.09,0,0,1,.75,3.7c-.09,3.24-2,6.74-5.3,10.32-.89,7-4.35,12.14-9.88,14.85-4.08,2-9.27,2.69-15.42,1.87-2.61,1.24-5.36,2.46-8.23,3.65-1.32.55-2.66,1.1-4,1.63a13.58,13.58,0,0,1-1.68,2.81c-3.66,4.77-9.85,6-16.86,6.08a10.63,10.63,0,0,0-.78,6.48l.38,1.66.44,1.93.69,3L147.8,167l.88,3.79a9.16,9.16,0,1,1-17.86,4.12l-.81-3.52-1.64-7.12-.43-1.83-.7-3.05-.6-2.59s-.66-5.35-5.94-5.29c-5.59,1.29-4.26,5.26-4,6.67l.93,4,.93,4,.2.9,1.51,6.51,3.34,14.49c.46,2-1.7,3.35-3.66,3.8s-4.69-.6-5.14-2.56l-3.2-13.86-1.17-5.09-.07-.28-1.14-4.94h0l-1.85-8a5.82,5.82,0,0,0-1.35-1.8,18.23,18.23,0,0,1-6,2,22.58,22.58,0,0,1-4.42.1,29.52,29.52,0,0,1-3.37-.41c-4,.91-8,1.62-11.88,2.13a111.31,111.31,0,0,1-15.72,1c-2.6,0-5.08-.16-7.42-.4l1.13,4.89L60,172.12a5.36,5.36,0,0,1,.13,1.19,5.26,5.26,0,0,1-4.07,5.12,5.58,5.58,0,0,1-.89.12,5.26,5.26,0,0,1-5.42-4.06L49.38,173l-3.6-15.58A22.87,22.87,0,0,1,40.73,154.86ZM65.91,209.6A7.69,7.69,0,0,0,64.05,207a6.32,6.32,0,0,0-1.85-1.18l0,0c-1-.35-1.84-.72-2.69-1.12-5-2.3-8.34-5.31-9.67-9a12.11,12.11,0,0,1-.37-1.21,11.6,11.6,0,0,1-.19-3.73c.77.46,1.6.9,2.45,1.33s1.8.85,2.76,1.25c1.25.52,2.58,1,4,1.46q2.43.78,5.13,1.43t5.37,1.1c1.27.22,2.56.43,3.91.61a144,144,0,0,0,24,1,222.81,222.81,0,0,0,41.44-5.7q5.67-1.31,11.15-2.86,7.76-2.18,15-4.77c13.28-4.75,25.15-10.47,34.67-16.79l.45-.31c1.9-1.27,3.68-2.56,5.34-3.84,1.5-1.17,2.91-2.34,4.21-3.51s2.33-2.17,3.36-3.26q1-1.06,1.89-2.13a38,38,0,0,0,2.8-3.75,11.59,11.59,0,0,1,1.47,3.45c.75,3.28-.1,6.8-2.31,10.42a29.42,29.42,0,0,1-3,4c-.65.75-1.35,1.5-2.1,2.24a16.16,16.16,0,0,1-7.58,9,20.18,20.18,0,0,0-.39,7l2.61,11.3,1.26,5.48.29,1.25a5.66,5.66,0,1,1-11,2.54l-.42-1.82L193,194.15a9.16,9.16,0,0,0-2-3.66c-8.59,6.38-22,12.26-37.6,15.87a131.77,131.77,0,0,1-18.52,2.94A18.35,18.35,0,0,1,124.12,214c-7.75.69-12.29-1.72-16.91-4.58-5.22.42-10.24.63-15,.61a1.49,1.49,0,0,0,0,.42l1.25,5.43a3.25,3.25,0,1,1-6.34,1.46L86,212.07c-.15-.57-.71-2.19-2.31-2.27l-.18,0c-.48,0-1,0-1.44-.09h0c-1.88.43-1.84,1.77-1.75,2.31l3.39,14.67c0,.14.05.28.07.42a6.72,6.72,0,0,1-5.1,7.63,6.71,6.71,0,0,1-8-5l-.71-3.07-1.75-7.56ZM211.2,231.77l0,0c-.82.73-1.66,1.46-2.53,2.17-.31.26-.64.51-1,.77-.56.45-1.13.91-1.71,1.36l-1.25.92-1.56,1.14-1.44,1-1.47,1-1.62,1c-.47.3-.93.6-1.41.89l-1.78,1.05-1.35.79c-.63.36-1.28.72-1.93,1.07l-1.29.7-2.09,1.08-1.22.61-2.25,1.08-1.14.52c-.8.37-1.6.73-2.41,1.08l-1.05.45-2.59,1.07-.94.37L174.4,253l-.83.3-2.95,1-.69.23-3.16,1-.52.16c-1.12.34-2.24.68-3.38,1l-.3.08c-2.28.63-4.59,1.23-6.92,1.77q-4.17,1-8.31,1.69c-2.76.48-5.5.89-8.23,1.21-1.36.16-2.72.31-4.07.43q-4,.38-8,.51a126.55,126.55,0,0,1-15.43-.41c-2.48-.23-4.92-.53-7.3-.92A90,90,0,0,1,94,258.84c-1-.29-2.08-.61-3.08-.93-2-.66-3.91-1.37-5.71-2.15a47.83,47.83,0,0,1-11.57-6.83c-.63-.52-1.24-1.05-1.82-1.6a29.73,29.73,0,0,1-3-3.22,79.91,79.91,0,0,0,15.51,3.51c18.38,2.45,41.6.77,65.39-4.72,22.84-5.28,43.64-13.48,58.93-23.2.65-.4,1.3-.81,1.92-1.22,7.88-5.24,13.72-10.57,17.43-15.86h0C227.67,212.1,221.88,222.24,211.2,231.77Z" style="fill: #69321e"/>
    </g>
  </g>
</svg>
