<svg xmlns="http://www.w3.org/2000/svg" viewBox="0 0 95.02 120.46"><defs><style>.cls-1{fill:none;}.cls-2{fill:#231f20;}.cls-3{fill:#fff;}.cls-4{fill:#f9d069;}.cls-5{fill:#fdc20f;}.cls-6{fill:#3bf24c;}.cls-7{fill:#be872c;}.cls-8{fill:#f7ea00;}.cls-9{fill:#e50c0c;}</style></defs><title>logo_supplementsteak</title><g id="Calque_2" data-name="Calque 2"><g id="Calque_1-2" data-name="Calque 1"><g id="Calque_2-2" data-name="Calque 2"><g id="Layer_11" data-name="Layer 11"><path class="cls-1" d="M35.78,32.35l.71.12a64.44,64.44,0,0,0,10.91.93c2.07,0,4.16-.1,6.23-.3,5.38-.52,11.1-2.54,14.66-5.17l-.13-.28,0,0,0,0v0c-.26-.5-.55-1-.86-1.47-3.32-4.51-9.35-6.62-19-6.62-.73,0-1.51,0-2.3,0-6.86.33-11.81,1.49-15.53,3.64-3.08,1.81-5.32,4.43-5.61,5.89l.15.15C27.25,30.88,33,31.86,35.78,32.35Z"/><path class="cls-2" d="M85.35,40.47h-.19c-2.17,0-4.43-3.73-5.91-5.7a7.19,7.19,0,0,0,1.2-2.1c2-4.6,0-9.4-2.6-13.4-6.4-8.7-16.3-11.8-26.7-12.2C50.07,7,49,7,47.88,7,36.49,7,24,9.56,16.54,18.77c-3.3,4-5.2,9.3-3.6,14.4A9.2,9.2,0,0,0,14.34,36a19.6,19.6,0,0,1-6,4.6c-2.2,1.1-1.5,4.4.7,5,1.8.5,3.5,1.1,5.2,1.7,0,1.7-.6,4.2,0,6-.1.1-.1.2-.2.3-1.31,2.82-2.16,6.07-1.36,9.19,0,.2.09.41.16.61A5.62,5.62,0,0,0,15,66.27a15.24,15.24,0,0,0,1.52,6.51s-3.23,6.63-.91,11a8.1,8.1,0,0,1-3.9,1.74c-2.4.4-2.6,3.9-.7,5,1.1.6,2.1,1.2,3.2,1.8a21,21,0,0,0,1.4,10.5c1.7,4,5.9,5.4,9.8,7,6.7,2.8,14.5,3.3,21.7,3.6q1.17,0,2.35,0A69.9,69.9,0,0,0,67,111.22a23.36,23.36,0,0,0,9.4-5.7c3.8-3.6,4.4-6.7,3.8-11.6v-.1c1.3-1,2.6-1.9,3.8-2.8s2.1-3.1.6-4.3c-1.22-1-2.43-2-3.65-2.93,1.93-5.44-1.43-11.48-1.43-11.48h0a13.22,13.22,0,0,0,.58-4.56c0-.1-.1-.6-.1-.6a7.55,7.55,0,0,0,.84-2.75,19.69,19.69,0,0,0-.74-7.4c1.6-1.9.5-4.5-.4-6.6a39.17,39.17,0,0,0,7.6-4.8C88.92,43.6,87.58,40.47,85.35,40.47ZM26.9,17.07c5.7-3.3,12.4-4.3,18.8-4.6.85,0,1.71,0,2.57,0,9.23,0,19,1.68,24.73,9.64a24.55,24.55,0,0,1,1.38,2.37l.07.15c1.51,3.11,1.72,6.1-1.75,8.78-5,3.8-12.2,6.1-18.4,6.7q-3.44.34-6.9.33a71.25,71.25,0,0,1-12.1-1c-4-.7-11.3-1.8-15.1-5.1-.12-.19-.71-.56-1.25-1.23l-.1-.13-.16-.21a3.28,3.28,0,0,1-.22-.37,4.17,4.17,0,0,1-.37-.86C16.4,25.47,22.3,19.77,26.9,17.07ZM34,62.57a47.33,47.33,0,0,0,7.6.83,11.05,11.05,0,0,0,5.7-1.23A3.45,3.45,0,0,0,48.5,61a29.88,29.88,0,0,0,23.1-.4c1-.4,2.2-.7,3.3-1.2a8.14,8.14,0,0,1,0,4.1,18.07,18.07,0,0,0-5.1.8c-1.1.4-2,1.1-3,1.5a9.29,9.29,0,0,1-3.42.61c-1,0-2-.12-3.28-.21a23.53,23.53,0,0,0-7.5.4c-2.77.69-4.82,1.77-7.18,1.77A8.35,8.35,0,0,1,42,67.57c-2.1-.9-3.6-2.2-5.9-2.5a5.86,5.86,0,0,0-.83-.06c-2.38,0-4.51,1.36-6.85,1.36H28.2c-2.2-.1-3.9-2.6-5.9-3.4-.9-.4-2.9-.3-3.6-.8-1.56-1.17-1-3.7-.36-5.3a5.58,5.58,0,0,1,.8.5A44.11,44.11,0,0,0,34,62.57ZM19.44,51c0-.6.1-1.1.1-1.7a59.58,59.58,0,0,1,7.7,3.6,8.09,8.09,0,0,0,3.91,1.22,7.39,7.39,0,0,0,4.19-1.62c.4.7.9,1.4,1.3,2.1a3,3,0,0,0,3.1,1.3,38.09,38.09,0,0,1,4.7-.7l-.3,2.4a18.08,18.08,0,0,1-4.39.51C32.72,58.08,25,54.59,19.44,51Zm55.3,2.3c-2.2.6-4.5,2.2-6.7,3a23.67,23.67,0,0,1-18.1-.6,2,2,0,0,1,.1-.8c4.1,0,8.3.3,12.5.4a2.92,2.92,0,0,0,2.7-2,9.84,9.84,0,0,1,.5-1.6,9,9,0,0,0,5.13,2.07,6.4,6.4,0,0,0,3-.77c.3-.1.5-.3.8-.4C74.54,52.77,74.64,53,74.74,53.27ZM51.34,89.58q-2.73,0-5.45-.21A60.29,60.29,0,0,1,27.57,85a15.5,15.5,0,0,1-5.52-3.78c-.65-.74-2.8-3.54-1.79-4.61a21.27,21.27,0,0,0,3,1.54,42,42,0,0,0,4.32,1.49c5.11,2.13,10.78,3.11,16.23,4a39.57,39.57,0,0,0,6.36.49,57.26,57.26,0,0,0,26.31-6.67,13.53,13.53,0,0,1-.69,5.48h0c-1.69,4-8.72,4.85-11,5.34A70.7,70.7,0,0,1,51.34,89.58ZM60,93.25c-.19.52-.36,1-.53,1.59-3.1.3-6.3.5-9.4.7-2.3.3-7.4.6-7.7.6-.3-.4-.7-.8-.8-1a19.53,19.53,0,0,0-1.7-2.3l-.15-.17,1.73.33a106.6,106.6,0,0,0,10.71.54Q56.08,93.54,60,93.25ZM20.72,68.37c2.93,1.34,4.55,3.39,8,3.39A9.65,9.65,0,0,0,30,71.67a40.09,40.09,0,0,1,5-.83,6.23,6.23,0,0,1,3,.73c.63.34,1.26.69,1.88,1A14.32,14.32,0,0,0,43.2,74a8.64,8.64,0,0,0,2,.23c2.4,0,4.57-1,6.85-1.77a21,21,0,0,1,3-.86,11.25,11.25,0,0,1,2-.18c2.56,0,4.89.75,7.29.75a8.86,8.86,0,0,0,4.16-1,18.52,18.52,0,0,1,5.7-2,5.77,5.77,0,0,1-1.36,3.11,6,6,0,0,1-2.14,1.49,41.19,41.19,0,0,1-6.9,1.8,89.11,89.11,0,0,1-16.2,1.7h-.9a63.52,63.52,0,0,1-14.2-1.61c-3.07-.72-6.17-1.49-8.48-3A7.93,7.93,0,0,1,20.72,68.37ZM19.59,87.13c4.3,2,11.55,3.79,16.52,4.83a4.33,4.33,0,0,0-1,.88,18.85,18.85,0,0,1-2.5,3.1c-3-1.1-5.9-3.2-8.5-4.6-1.9-1-3.8-2.1-5.7-3.2A13.73,13.73,0,0,0,19.59,87.13Zm54.9,10.39-.07.14c-2.49,8.6-16.53,10.1-25,10.1l-1.73,0a96.21,96.21,0,0,1-14.2-1.4,34,34,0,0,1-9.8-3.6c-1.78-1-2.68-1.59-3.47-3.44v-.06a8.15,8.15,0,0,1-.41-1.4,13.35,13.35,0,0,1-.29-2.8c2.6,1.5,5.3,2.9,8,4.3,1.6.8,3.8,2.4,5.7,2.5h.18c1.62,0,3.06-1.26,4.22-2.71a5.9,5.9,0,0,0,3,2.5,5.59,5.59,0,0,0,1.75.24c1.51,0,3.18-.37,4.45-.44,4.9-.4,9.8-.7,14.8-1.2a3,3,0,0,0,2.7-2c.1-.4.3-.8.4-1.2a7.91,7.91,0,0,0,4.74,2,5,5,0,0,0,1.76-.33,32.25,32.25,0,0,0,3.4-1.5A1.29,1.29,0,0,1,74.49,97.52Zm-3-5.28c-.6.3-2.1,1.2-2.2,1.3a13.68,13.68,0,0,0-1.4-1l-.41-.31a37.46,37.46,0,0,0,6.81-2,14.49,14.49,0,0,0,3.53-2l.17.11C75.74,89.64,73.64,91,71.44,92.24Zm-.6-44.07h-.05a33.71,33.71,0,0,1-4.6-3.1,2.8,2.8,0,0,0-4.6,1.2l-1.2,3.3c-3.28-.14-6.52-.31-9.74-.31a57.05,57.05,0,0,0-10.26.81,30.72,30.72,0,0,1-1.7-3.1,2.86,2.86,0,0,0-3.8-1c-1.28.94-2.42,2.1-4,2.1A3.69,3.69,0,0,1,30,48c-2.1-.5-4.5-2.5-6.4-3.3-2.5-1.1-5.1-2-7.7-2.9a27.16,27.16,0,0,0,2.4-2.4,37.88,37.88,0,0,0,6.5,2.9A67.77,67.77,0,0,0,46.91,46a52.82,52.82,0,0,0,18.58-3.14,49,49,0,0,0,9.6-4.5,45.84,45.84,0,0,0,4.4,5.3A59.77,59.77,0,0,1,70.84,48.17Z"/><path class="cls-3" d="M92.35,50.55l.49-.62A10.4,10.4,0,0,0,94,39a9.71,9.71,0,0,0-6.47-5.29c1.74-5.57.46-11.71-3.8-18.27l-.11-.17-.12-.16C76.54,5.69,65.75.62,51.41.07,50.23,0,49,0,47.88,0,31.46,0,18.75,5,11.13,14.33,6.19,20.32,4.33,27.41,5.9,34l-.67.36A9.43,9.43,0,0,0,0,43.77,9.91,9.91,0,0,0,7,52.29,19.68,19.68,0,0,0,5.9,64.53v0a10.92,10.92,0,0,0,.31,1.1,12.65,12.65,0,0,0,2,3.76A22.51,22.51,0,0,0,9,72.76a23.8,23.8,0,0,0-1.24,6.79,9.4,9.4,0,0,0-4.88,6.73,9.86,9.86,0,0,0,4.2,10,28.05,28.05,0,0,0,2,9.14l0,0,0,0c2.7,6.34,8.46,8.67,12.66,10.36l.92.37c7.64,3.19,16.08,3.78,24.07,4.12h.06c.86,0,1.73,0,2.58,0A77,77,0,0,0,68.77,118l.18,0,.18-.06a30.49,30.49,0,0,0,12.16-7.35c4.76-4.53,6.06-9,6.13-13.33l.8-.59a10.58,10.58,0,0,0,4.18-8.11A9,9,0,0,0,89,81.29L88.7,81l-.16-.13a23.86,23.86,0,0,0-1.65-9.25,20.13,20.13,0,0,0,.26-3.37,14.51,14.51,0,0,0,.69-3.14V65a26.57,26.57,0,0,0-.33-7.22,10.87,10.87,0,0,0,.39-4A46.16,46.16,0,0,0,91.73,51ZM84,91c-1.2.9-2.5,1.8-3.8,2.8v.1c.6,4.9,0,8-3.8,11.6a23.36,23.36,0,0,1-9.4,5.7,69.9,69.9,0,0,1-17.55,2.24q-1.17,0-2.35,0c-7.2-.3-15-.8-21.7-3.6-3.9-1.6-8.1-3-9.8-7a21,21,0,0,1-1.4-10.5c-1.1-.6-2.1-1.2-3.2-1.8-1.9-1.1-1.7-4.6.7-5a8.1,8.1,0,0,0,3.9-1.74c-2.32-4.37.91-11,.91-11A15.24,15.24,0,0,1,15,66.27a5.62,5.62,0,0,1-2.16-2.87c-.07-.2-.11-.41-.16-.61-.8-3.12,0-6.37,1.36-9.19.1-.1.1-.2.2-.3-.6-1.8,0-4.3,0-6-1.7-.6-3.4-1.2-5.2-1.7-2.2-.6-2.9-3.9-.7-5a19.6,19.6,0,0,0,6-4.6,9.2,9.2,0,0,1-1.4-2.83c-1.6-5.1.3-10.4,3.6-14.4C24,9.56,36.49,7,47.88,7c1.1,0,2.19,0,3.27.07,10.4.4,20.3,3.5,26.7,12.2,2.6,4,4.6,8.8,2.6,13.4a7.19,7.19,0,0,1-1.2,2.1c1.48,2,3.74,5.7,5.91,5.7h.19c2.24,0,3.57,3.13,2,5.13a39.17,39.17,0,0,1-7.6,4.8c.9,2.1,2,4.7.4,6.6a19.69,19.69,0,0,1,.74,7.4A7.55,7.55,0,0,1,80,67.15s.1.5.1.6a13.22,13.22,0,0,1-.58,4.56h0s3.36,6,1.43,11.48c1.22.93,2.43,1.93,3.65,2.93C86.11,87.92,85.21,90.12,84,91Z"/><path class="cls-4" d="M71.14,98.74c-2.4.9-4.6-.2-6.5-1.7-.1.4-.3.8-.4,1.2a3,3,0,0,1-2.7,2c-5,.5-9.9.8-14.8,1.2-1.8.1-4.4.8-6.2.2a5.9,5.9,0,0,1-3-2.5c-1.2,1.5-2.7,2.8-4.4,2.7-1.9-.1-4.1-1.7-5.7-2.5-2.7-1.4-5.4-2.8-8-4.3a13.35,13.35,0,0,0,.29,2.8c4,2.22,11,5.94,16.41,6.4,8.7.8,23.2-.4,27.6-1.6a38.12,38.12,0,0,0,10.72-5.12,1.29,1.29,0,0,1,.08-.28A32.27,32.27,0,0,1,71.14,98.74Z"/><path class="cls-5" d="M63.74,102.64c-4.4,1.2-18.9,2.4-27.6,1.6-5.37-.46-12.46-4.19-16.41-6.4a8.15,8.15,0,0,0,.41,1.4v.06c.79,1.85,1.69,2.45,3.47,3.44a34,34,0,0,0,9.8,3.6,96.21,96.21,0,0,0,14.2,1.4c8.18.2,24.1-.87,26.78-10.08v-.14A38.12,38.12,0,0,1,63.74,102.64Z"/><path class="cls-6" d="M41.54,95.14c.1.2.5.6.8,1,.3,0,5.4-.3,7.7-.6,3.1-.2,6.3-.4,9.4-.7.16-.54.34-1.07.53-1.59A106.6,106.6,0,0,1,41.45,93l-1.75-.32.15.17A19.53,19.53,0,0,1,41.54,95.14Z"/><path class="cls-6" d="M69.24,93.54c.1-.1,1.6-1,2.2-1.3,2.2-1.2,4.3-2.6,6.5-3.9l-.17-.13a14.49,14.49,0,0,1-3.53,2,37.47,37.47,0,0,1-6.81,2l.41.31A13.68,13.68,0,0,1,69.24,93.54Z"/><path class="cls-6" d="M24.14,91.34c2.6,1.4,5.5,3.5,8.5,4.6a18.85,18.85,0,0,0,2.5-3.1,4.33,4.33,0,0,1,1-.88c-5-1-12.22-2.78-16.52-4.83a14.66,14.66,0,0,1-1.15,1C20.34,89.24,22.24,90.34,24.14,91.34Z"/><path class="cls-7" d="M20.26,76.62c-1,1.07,1.14,3.87,1.79,4.61A15.5,15.5,0,0,0,27.57,85a60.29,60.29,0,0,0,18.31,4.34,70.7,70.7,0,0,0,18.9-1.08c2.29-.48,9.32-1.38,11-5.34a13.53,13.53,0,0,0,.67-5.46c-9.91,5.44-23,7.76-32.67,6.18-5.46-.89-11.13-1.88-16.23-4a42,42,0,0,1-4.32-1.49A21.27,21.27,0,0,1,20.26,76.62Z"/><path class="cls-5" d="M20.24,34.27c3.8,3.3,11.1,4.4,15.1,5.1a71.25,71.25,0,0,0,19,.7c6.2-.6,13.4-2.9,18.4-6.7,3.47-2.68,3.26-5.67,1.75-8.78a6.08,6.08,0,0,1-2.35,3.18c-4.7,3.7-11.8,6.3-18,7.3a87.16,87.16,0,0,1-19.1,1c-4.1-.3-11.5-.7-15.6-3.1a6,6,0,0,0-.91-.63,4,4,0,0,0,.21.35l.16.21.1.1A15.44,15.44,0,0,0,20.24,34.27Z"/><path class="cls-4" d="M74.42,24.44A24.55,24.55,0,0,0,73,22.07c-6.3-8.7-17.4-9.9-27.3-9.6-6.4.3-13.1,1.3-18.8,4.6-4.6,2.7-10.5,8.4-8.8,14.4a4.17,4.17,0,0,0,.37.86h0a6,6,0,0,1,.91.63c4.1,2.4,11.5,2.8,15.6,3.1a87.16,87.16,0,0,0,19.1-1c6.2-1,13.3-3.6,18-7.3a6.08,6.08,0,0,0,2.35-3.18Z"/><path class="cls-8" d="M36.14,65.07c2.3.3,3.8,1.6,5.9,2.5,4.1,1.8,6.6,0,10.6-1a23.53,23.53,0,0,1,7.5-.4c2.6.2,4.3.5,6.7-.4,1-.4,1.9-1.1,3-1.5a18.07,18.07,0,0,1,5.1-.8,8.14,8.14,0,0,0,0-4.1c-1.1.5-2.3.8-3.3,1.2a29.88,29.88,0,0,1-23.1.4,3.45,3.45,0,0,1-1.2,1.2c-3.4,2.1-9.7,1-13.3.4a44.11,44.11,0,0,1-14.9-5.2,5.58,5.58,0,0,0-.8-.5c-.6,1.6-1.2,4.1.4,5.3.7.5,2.7.4,3.6.8,2,.8,3.7,3.3,5.9,3.4C30.94,66.47,33.34,64.67,36.14,65.07Z"/><path class="cls-6" d="M65.54,42.87c-12.4,4.7-28.2,3.8-40.7-.6a37.88,37.88,0,0,1-6.5-2.9,27.16,27.16,0,0,1-2.4,2.4c2.6.9,5.2,1.8,7.7,2.9,1.9.8,4.4,2.8,6.4,3.3s3.4-.9,4.9-2a2.86,2.86,0,0,1,3.8,1,30.72,30.72,0,0,0,1.7,3.1c6.6-1.2,13.2-.8,20-.5l1.2-3.3a2.8,2.8,0,0,1,4.6-1.2,33.71,33.71,0,0,0,4.6,3.1,59.77,59.77,0,0,0,8.7-4.5,45.84,45.84,0,0,1-4.4-5.3A49,49,0,0,1,65.54,42.87Z"/><path class="cls-9" d="M36.64,54.57c-.4-.7-.9-1.4-1.3-2.1-2.5,1.7-4.5,2.4-8.1.4a59.58,59.58,0,0,0-7.7-3.6c0,.6-.1,1.1-.1,1.7,6.7,4.4,16.7,8.6,24.7,6.6l.3-2.4a38.1,38.1,0,0,0-4.7.7A3,3,0,0,1,36.64,54.57Z"/><path class="cls-9" d="M74.64,52.57c-.3.1-.5.3-.8.4-3.1,1.6-5.6.5-8.1-1.3a9.84,9.84,0,0,0-.5,1.6,2.92,2.92,0,0,1-2.7,2c-4.2-.1-8.4-.4-12.5-.4a2,2,0,0,0-.1.8,23.67,23.67,0,0,0,18.1.6c2.2-.8,4.5-2.4,6.7-3C74.64,53,74.54,52.77,74.64,52.57Z"/><path class="cls-7" d="M68.54,71.27c-4.7,2.4-8.6-.5-13.5.4a21,21,0,0,0-3,.86c-2.88,1-5.6,2.29-8.82,1.54a14.32,14.32,0,0,1-3.32-1.46c-.63-.35-1.25-.71-1.88-1-2.9-1.5-5.1-.3-8,.1-4.4.6-6-1.8-9.3-3.3A7.93,7.93,0,0,0,24,72.77c2.31,1.56,5.41,2.32,8.48,3a63.52,63.52,0,0,0,15.1,1.6,89.11,89.11,0,0,0,16.2-1.7,41.19,41.19,0,0,0,6.9-1.8,6,6,0,0,0,2.14-1.49,5.77,5.77,0,0,0,1.36-3.11A18.52,18.52,0,0,0,68.54,71.27Z"/></g></g></g></g></svg>